<?xml version="1.0" encoding="utf-8"?>
<!-- Generator: Adobe Illustrator 16.0.3, SVG Export Plug-In . SVG Version: 6.00 Build 0)  -->
<!DOCTYPE svg PUBLIC "-//W3C//DTD SVG 1.1//EN" "http://www.w3.org/Graphics/SVG/1.1/DTD/svg11.dtd">
<svg version="1.1" xmlns="http://www.w3.org/2000/svg" xmlns:xlink="http://www.w3.org/1999/xlink" x="0px" y="0px" width="600px"
	 height="600px" viewBox="0 0 600 600" enable-background="new 0 0 600 600" xml:space="preserve">
<g id="Edit" display="none">
	<circle display="inline" fill="#F27E7E" cx="292.147" cy="294.888" r="248.993"/>
	
		<g id="Edit__x2014__Used_to_enter_Edit_mode._Edit_mode_allows_the_user_to_change_the_data_of_otherwise_not_editable_detail_views._Example:__Contacts_detail_view." display="inline">
		<path fill="#FFFFFF" d="M295.738,234.374l-96.379,80.118c0,0,6.872,7.875,26.414,8.904c3.301,9.266,6.219,20.082,27.907,32.967
			c-2.72,18.451,5.195,29.717,5.195,29.717l96.427-80.025c0.105-12.184-7.471-28.108-20.431-43.677
			C317.153,241.046,301.116,235.669,295.738,234.374z"/>
		<path fill="#FFFFFF" d="M428.863,183.316c-23.717-23.619-42.126-19.156-52.054-11.298c-3.45,2.742-14.192,9.807-22.056,14.937
			c8.164,1.324,24.3,6.469,40.674,26.145c16.276,19.576,18.229,35.162,17.596,43.687c6.901-7.322,17.715-18.785,19.349-20.145
			C443.271,227.506,452.585,206.948,428.863,183.316z"/>
		<path fill="#FFFFFF" d="M211.9,332.722c-17.399-1.646-21.08-5.939-21.08-5.939l-50.216,97.273l104.863-32.076
			c0,0-6.457-16.615-5.428-25.076C233.21,363.979,215.838,350.964,211.9,332.722z"/>
		<path fill="#FFFFFF" d="M342.479,195.587l-10.965,8.873c0,0,18.808,4.963,39.269,29.607
			c12.843,15.492,19.065,31.156,19.422,41.719l10.477-8.605c0,0,5.002-16.936-17.171-43.868
			C361.729,196.839,342.479,195.587,342.479,195.587z"/>
		<path fill="#FFFFFF" d="M321.455,215.869l-10.48,8.498c0,0,18.014,4.755,37.583,28.363c12.297,14.816,18.261,29.804,18.609,39.923
			l10.022-8.254c0,0,4.784-16.21-16.439-41.994C339.903,217.065,321.455,215.869,321.455,215.869z"/>
	</g>
</g>
<g id="QR" display="none">
	<circle display="inline" fill="#EA9081" cx="292.147" cy="294.888" r="248.993"/>
	<g id="elements_1_" display="inline">
		<path fill="#FFFFFF" d="M139.8,142.54h14.509v14.509H139.8V142.54z M154.309,142.54h14.509v14.509h-14.509V142.54z
			 M168.818,142.54h14.509v14.509h-14.509V142.54z M183.328,142.54h14.509v14.509h-14.509V142.54z M197.837,142.54h14.509v14.509
			h-14.509V142.54z M212.346,142.54h14.51v14.509h-14.51V142.54z M226.856,142.54h14.509v14.509h-14.509V142.54z M284.893,142.54
			h14.509v14.509h-14.509V142.54z M299.402,142.54h14.509v14.509h-14.509V142.54z M313.911,142.54h14.51v14.509h-14.51V142.54z
			 M342.93,142.54h14.51v14.509h-14.51V142.54z M357.439,142.54h14.509v14.509h-14.509V142.54z M371.948,142.54h14.51v14.509h-14.51
			V142.54z M386.458,142.54h14.509v14.509h-14.509V142.54z M400.967,142.54h14.51v14.509h-14.51V142.54z M415.477,142.54h14.509
			v14.509h-14.509V142.54z M429.985,142.54h14.51v14.509h-14.51V142.54z M139.8,157.049h14.509v14.509H139.8V157.049z
			 M226.856,157.049h14.509v14.509h-14.509V157.049z M255.875,157.049h14.509v14.509h-14.509V157.049z M270.383,157.049h14.51
			v14.509h-14.51V157.049z M284.893,157.049h14.509v14.509h-14.509V157.049z M313.911,157.049h14.51v14.509h-14.51V157.049z
			 M342.93,157.049h14.51v14.509h-14.51V157.049z M429.985,157.049h14.51v14.509h-14.51V157.049z M139.8,171.559h14.509v14.509
			H139.8V171.559z M168.818,171.559h14.509v14.509h-14.509V171.559z M183.328,171.559h14.509v14.509h-14.509V171.559z
			 M197.837,171.559h14.509v14.509h-14.509V171.559z M226.856,171.559h14.509v14.509h-14.509V171.559z M284.893,171.559h14.509
			v14.509h-14.509V171.559z M299.402,171.559h14.509v14.509h-14.509V171.559z M313.911,171.559h14.51v14.509h-14.51V171.559z
			 M342.93,171.559h14.51v14.509h-14.51V171.559z M371.948,171.559h14.51v14.509h-14.51V171.559z M386.458,171.559h14.509v14.509
			h-14.509V171.559z M400.967,171.559h14.51v14.509h-14.51V171.559z M429.985,171.559h14.51v14.509h-14.51V171.559z M139.8,186.068
			h14.509v14.509H139.8V186.068z M168.818,186.068h14.509v14.509h-14.509V186.068z M183.328,186.068h14.509v14.509h-14.509V186.068z
			 M197.837,186.068h14.509v14.509h-14.509V186.068z M226.856,186.068h14.509v14.509h-14.509V186.068z M255.875,186.068h14.509
			v14.509h-14.509V186.068z M270.383,186.068h14.51v14.509h-14.51V186.068z M313.911,186.068h14.51v14.509h-14.51V186.068z
			 M342.93,186.068h14.51v14.509h-14.51V186.068z M371.948,186.068h14.51v14.509h-14.51V186.068z M386.458,186.068h14.509v14.509
			h-14.509V186.068z M400.967,186.068h14.51v14.509h-14.51V186.068z M429.985,186.068h14.51v14.509h-14.51V186.068z M139.8,200.577
			h14.509v14.509H139.8V200.577z M168.818,200.577h14.509v14.509h-14.509V200.577z M183.328,200.577h14.509v14.509h-14.509V200.577z
			 M197.837,200.577h14.509v14.509h-14.509V200.577z M226.856,200.577h14.509v14.509h-14.509V200.577z M270.383,200.577h14.51
			v14.509h-14.51V200.577z M313.911,200.577h14.51v14.509h-14.51V200.577z M342.93,200.577h14.51v14.509h-14.51V200.577z
			 M371.948,200.577h14.51v14.509h-14.51V200.577z M386.458,200.577h14.509v14.509h-14.509V200.577z M400.967,200.577h14.51v14.509
			h-14.51V200.577z M429.985,200.577h14.51v14.509h-14.51V200.577z M139.8,215.086h14.509v14.51H139.8V215.086z M226.856,215.086
			h14.509v14.51h-14.509V215.086z M255.875,215.086h14.509v14.51h-14.509V215.086z M299.402,215.086h14.509v14.51h-14.509V215.086z
			 M342.93,215.086h14.51v14.51h-14.51V215.086z M429.985,215.086h14.51v14.51h-14.51V215.086z M139.8,229.596h14.509v14.509H139.8
			V229.596z M154.309,229.596h14.509v14.509h-14.509V229.596z M168.818,229.596h14.509v14.509h-14.509V229.596z M183.328,229.596
			h14.509v14.509h-14.509V229.596z M197.837,229.596h14.509v14.509h-14.509V229.596z M212.346,229.596h14.51v14.509h-14.51V229.596z
			 M226.856,229.596h14.509v14.509h-14.509V229.596z M255.875,229.596h14.509v14.509h-14.509V229.596z M284.893,229.596h14.509
			v14.509h-14.509V229.596z M313.911,229.596h14.51v14.509h-14.51V229.596z M342.93,229.596h14.51v14.509h-14.51V229.596z
			 M357.439,229.596h14.509v14.509h-14.509V229.596z M371.948,229.596h14.51v14.509h-14.51V229.596z M386.458,229.596h14.509v14.509
			h-14.509V229.596z M400.967,229.596h14.51v14.509h-14.51V229.596z M415.477,229.596h14.509v14.509h-14.509V229.596z
			 M429.985,229.596h14.51v14.509h-14.51V229.596z M270.383,244.105h14.51v14.51h-14.51V244.105z M139.8,258.615h14.509v14.509
			H139.8V258.615z M154.309,258.615h14.509v14.509h-14.509V258.615z M168.818,258.615h14.509v14.509h-14.509V258.615z
			 M183.328,258.615h14.509v14.509h-14.509V258.615z M197.837,258.615h14.509v14.509h-14.509V258.615z M226.856,258.615h14.509
			v14.509h-14.509V258.615z M241.365,258.615h14.51v14.509h-14.51V258.615z M255.875,258.615h14.509v14.509h-14.509V258.615z
			 M299.402,258.615h14.509v14.509h-14.509V258.615z M328.421,258.615h14.509v14.509h-14.509V258.615z M357.439,258.615h14.509
			v14.509h-14.509V258.615z M386.458,258.615h14.509v14.509h-14.509V258.615z M415.477,258.615h14.509v14.509h-14.509V258.615z
			 M168.818,273.124h14.509v14.509h-14.509V273.124z M197.837,273.124h14.509v14.509h-14.509V273.124z M241.365,273.124h14.51
			v14.509h-14.51V273.124z M270.383,273.124h14.51v14.509h-14.51V273.124z M299.402,273.124h14.509v14.509h-14.509V273.124z
			 M313.911,273.124h14.51v14.509h-14.51V273.124z M328.421,273.124h14.509v14.509h-14.509V273.124z M342.93,273.124h14.51v14.509
			h-14.51V273.124z M357.439,273.124h14.509v14.509h-14.509V273.124z M429.985,273.124h14.51v14.509h-14.51V273.124z M139.8,287.633
			h14.509v14.51H139.8V287.633z M154.309,287.633h14.509v14.51h-14.509V287.633z M183.328,287.633h14.509v14.51h-14.509V287.633z
			 M226.856,287.633h14.509v14.51h-14.509V287.633z M255.875,287.633h14.509v14.51h-14.509V287.633z M284.893,287.633h14.509v14.51
			h-14.509V287.633z M313.911,287.633h14.51v14.51h-14.51V287.633z M342.93,287.633h14.51v14.51h-14.51V287.633z M357.439,287.633
			h14.509v14.51h-14.509V287.633z M386.458,287.633h14.509v14.51h-14.509V287.633z M400.967,287.633h14.51v14.51h-14.51V287.633z
			 M415.477,287.633h14.509v14.51h-14.509V287.633z M154.309,302.143h14.509v14.509h-14.509V302.143z M168.818,302.143h14.509
			v14.509h-14.509V302.143z M183.328,302.143h14.509v14.509h-14.509V302.143z M197.837,302.143h14.509v14.509h-14.509V302.143z
			 M241.365,302.143h14.51v14.509h-14.51V302.143z M299.402,302.143h14.509v14.509h-14.509V302.143z M313.911,302.143h14.51v14.509
			h-14.51V302.143z M328.421,302.143h14.509v14.509h-14.509V302.143z M342.93,302.143h14.51v14.509h-14.51V302.143z
			 M357.439,302.143h14.509v14.509h-14.509V302.143z M371.948,302.143h14.51v14.509h-14.51V302.143z M386.458,302.143h14.509v14.509
			h-14.509V302.143z M400.967,302.143h14.51v14.509h-14.51V302.143z M429.985,302.143h14.51v14.509h-14.51V302.143z M139.8,316.651
			h14.509v14.51H139.8V316.651z M183.328,316.651h14.509v14.51h-14.509V316.651z M197.837,316.651h14.509v14.51h-14.509V316.651z
			 M226.856,316.651h14.509v14.51h-14.509V316.651z M241.365,316.651h14.51v14.51h-14.51V316.651z M284.893,316.651h14.509v14.51
			h-14.509V316.651z M313.911,316.651h14.51v14.51h-14.51V316.651z M357.439,316.651h14.509v14.51h-14.509V316.651z
			 M371.948,316.651h14.51v14.51h-14.51V316.651z M415.477,316.651h14.509v14.51h-14.509V316.651z M429.985,316.651h14.51v14.51
			h-14.51V316.651z M255.875,331.161h14.509v14.51h-14.509V331.161z M270.383,331.161h14.51v14.51h-14.51V331.161z M313.911,331.161
			h14.51v14.51h-14.51V331.161z M357.439,331.161h14.509v14.51h-14.509V331.161z M386.458,331.161h14.509v14.51h-14.509V331.161z
			 M429.985,331.161h14.51v14.51h-14.51V331.161z M139.8,345.671h14.509v14.509H139.8V345.671z M154.309,345.671h14.509v14.509
			h-14.509V345.671z M168.818,345.671h14.509v14.509h-14.509V345.671z M183.328,345.671h14.509v14.509h-14.509V345.671z
			 M197.837,345.671h14.509v14.509h-14.509V345.671z M212.346,345.671h14.51v14.509h-14.51V345.671z M226.856,345.671h14.509v14.509
			h-14.509V345.671z M255.875,345.671h14.509v14.509h-14.509V345.671z M284.893,345.671h14.509v14.509h-14.509V345.671z
			 M299.402,345.671h14.509v14.509h-14.509V345.671z M328.421,345.671h14.509v14.509h-14.509V345.671z M357.439,345.671h14.509
			v14.509h-14.509V345.671z M386.458,345.671h14.509v14.509h-14.509V345.671z M400.967,345.671h14.51v14.509h-14.51V345.671z
			 M415.477,345.671h14.509v14.509h-14.509V345.671z M139.8,360.18h14.509v14.509H139.8V360.18z M226.856,360.18h14.509v14.509
			h-14.509V360.18z M270.383,360.18h14.51v14.509h-14.51V360.18z M386.458,360.18h14.509v14.509h-14.509V360.18z M400.967,360.18
			h14.51v14.509h-14.51V360.18z M415.477,360.18h14.509v14.509h-14.509V360.18z M429.985,360.18h14.51v14.509h-14.51V360.18z
			 M139.8,374.688h14.509v14.51H139.8V374.688z M168.818,374.688h14.509v14.51h-14.509V374.688z M183.328,374.688h14.509v14.51
			h-14.509V374.688z M197.837,374.688h14.509v14.51h-14.509V374.688z M226.856,374.688h14.509v14.51h-14.509V374.688z
			 M255.875,374.688h14.509v14.51h-14.509V374.688z M270.383,374.688h14.51v14.51h-14.51V374.688z M284.893,374.688h14.509v14.51
			h-14.509V374.688z M299.402,374.688h14.509v14.51h-14.509V374.688z M328.421,374.688h14.509v14.51h-14.509V374.688z
			 M386.458,374.688h14.509v14.51h-14.509V374.688z M415.477,374.688h14.509v14.51h-14.509V374.688z M139.8,389.198h14.509v14.51
			H139.8V389.198z M168.818,389.198h14.509v14.51h-14.509V389.198z M183.328,389.198h14.509v14.51h-14.509V389.198z
			 M197.837,389.198h14.509v14.51h-14.509V389.198z M226.856,389.198h14.509v14.51h-14.509V389.198z M255.875,389.198h14.509v14.51
			h-14.509V389.198z M270.383,389.198h14.51v14.51h-14.51V389.198z M299.402,389.198h14.509v14.51h-14.509V389.198z
			 M313.911,389.198h14.51v14.51h-14.51V389.198z M328.421,389.198h14.509v14.51h-14.509V389.198z M342.93,389.198h14.51v14.51
			h-14.51V389.198z M357.439,389.198h14.509v14.51h-14.509V389.198z M371.948,389.198h14.51v14.51h-14.51V389.198z M400.967,389.198
			h14.51v14.51h-14.51V389.198z M139.8,403.708h14.509v14.509H139.8V403.708z M168.818,403.708h14.509v14.509h-14.509V403.708z
			 M183.328,403.708h14.509v14.509h-14.509V403.708z M197.837,403.708h14.509v14.509h-14.509V403.708z M226.856,403.708h14.509
			v14.509h-14.509V403.708z M255.875,403.708h14.509v14.509h-14.509V403.708z M284.893,403.708h14.509v14.509h-14.509V403.708z
			 M313.911,403.708h14.51v14.509h-14.51V403.708z M342.93,403.708h14.51v14.509h-14.51V403.708z M400.967,403.708h14.51v14.509
			h-14.51V403.708z M139.8,418.217h14.509v14.509H139.8V418.217z M226.856,418.217h14.509v14.509h-14.509V418.217z M255.875,418.217
			h14.509v14.509h-14.509V418.217z M270.383,418.217h14.51v14.509h-14.51V418.217z M284.893,418.217h14.509v14.509h-14.509V418.217z
			 M299.402,418.217h14.509v14.509h-14.509V418.217z M313.911,418.217h14.51v14.509h-14.51V418.217z M328.421,418.217h14.509v14.509
			h-14.509V418.217z M342.93,418.217h14.51v14.509h-14.51V418.217z M357.439,418.217h14.509v14.509h-14.509V418.217z
			 M386.458,418.217h14.509v14.509h-14.509V418.217z M400.967,418.217h14.51v14.509h-14.51V418.217z M139.8,432.726h14.509v14.51
			H139.8V432.726z M154.309,432.726h14.509v14.51h-14.509V432.726z M168.818,432.726h14.509v14.51h-14.509V432.726z
			 M183.328,432.726h14.509v14.51h-14.509V432.726z M197.837,432.726h14.509v14.51h-14.509V432.726z M212.346,432.726h14.51v14.51
			h-14.51V432.726z M226.856,432.726h14.509v14.51h-14.509V432.726z M255.875,432.726h14.509v14.51h-14.509V432.726z
			 M270.383,432.726h14.51v14.51h-14.51V432.726z M284.893,432.726h14.509v14.51h-14.509V432.726z M313.911,432.726h14.51v14.51
			h-14.51V432.726z M371.948,432.726h14.51v14.51h-14.51V432.726z M415.477,432.726h14.509v14.51h-14.509V432.726z"/>
	</g>
</g>
<g id="Contacts">
	<circle fill="#C63457" cx="300.647" cy="300.388" r="298.493"/>
	<path fill="#FFFFFF" d="M165.95,161.957c6.746-1.43,11.805-6.779,13.77-14.549l-32.259,6.839
		C152.408,160.551,159.208,163.387,165.95,161.957z"/>
	<path fill="#FFFFFF" d="M117.315,219.46l427.596-90.653c-12.734-18.094-27.417-34.716-43.76-49.544l-97.896,20.754l-4.227-19.937
		l82.135-17.413c-10.713-8.148-21.992-15.588-33.771-22.251l-352.206,74.67L117.315,219.46z M369.71,86.296l4.228,19.937
		l-157.146,33.316l-4.227-19.937L369.71,86.296z M203.178,182.875l-64.963,13.772c0.668-12.396,6.375-19.437,14.672-23.608
		c4.532,1.32,9.434,1.543,14.365,0.498c4.934-1.046,9.33-3.225,12.936-6.267C189.471,167.711,197.536,171.816,203.178,182.875z
		 M156.306,121.904c12.498-2.649,24.769,5.33,27.417,17.822c2.65,12.498-5.329,24.768-17.827,27.417
		c-12.492,2.648-24.764-5.329-27.413-17.826C135.835,136.825,143.813,124.553,156.306,121.904z"/>
	
		<rect x="283.061" y="32.603" transform="matrix(0.2074 0.9782 -0.9782 0.2074 342.8859 -197.3738)" fill="#CCCCCC" width="20.38" height="160.639"/>
	<path fill="#CCCCCC" d="M399.028,80.081l4.227,19.937l97.896-20.754c-6.412-5.817-13.087-11.347-19.988-16.595L399.028,80.081z"/>
	<path fill="#FFFFFF" d="M191.062,280.404c6.745-1.431,11.805-6.78,13.77-14.549l-32.259,6.839
		C177.52,278.997,184.319,281.833,191.062,280.404z"/>
	<path fill="#FFFFFF" d="M142.426,337.906l451.043-95.625c-7.169-36.332-20.93-70.29-39.985-100.587l-433.186,91.838
		L142.426,337.906z M551.969,171.427l4.226,19.936L374.421,229.9l-4.227-19.937L551.969,171.427z M346.739,214.936l4.227,19.937
		l-109.064,23.122l-4.226-19.936L346.739,214.936z M228.29,301.321l-64.963,13.771c0.669-12.396,6.333-19.63,14.631-23.802
		c4.532,1.319,9.413,1.443,14.344,0.398c4.935-1.047,9.362-3.078,12.967-6.121C214.551,286.011,222.647,290.263,228.29,301.321z
		 M181.334,239.959c12.497-2.65,24.769,5.331,27.417,17.822c2.649,12.498-5.33,24.768-17.827,27.417
		c-12.492,2.648-24.764-5.329-27.414-17.826C160.864,254.881,168.842,242.608,181.334,239.959z"/>
	
		<rect x="284.131" y="180.722" transform="matrix(0.2074 0.9783 -0.9783 0.2074 464.6076 -100.4958)" fill="#CCCCCC" width="20.38" height="111.488"/>
	
		<rect x="453.005" y="107.756" transform="matrix(0.2074 0.9783 -0.9783 0.2074 563.4503 -294.0726)" fill="#CCCCCC" width="20.378" height="185.815"/>
	<path fill="#FFFFFF" d="M215.924,397.677c6.745-1.43,11.805-6.779,13.77-14.549l-32.259,6.84
		C202.383,396.271,209.182,399.106,215.924,397.677z"/>
	<path fill="#FFFFFF" d="M167.29,455.18l424.791-90.06c4.609-20.844,7.061-42.501,7.061-64.732c0-15.334-1.16-30.398-3.391-45.109
		l-450.588,95.527L167.29,455.18z M570.967,289.943l4.227,19.936l-139.555,29.587l-4.228-19.937L570.967,289.943z M406.785,324.752
		l4.226,19.936l-150.11,31.823l-4.227-19.936L406.785,324.752z M253.153,418.595l-64.963,13.772
		c0.668-12.397,6.416-19.242,14.713-23.415c4.532,1.321,9.456,1.642,14.386,0.597c4.935-1.047,9.299-3.371,12.905-6.413
		C239.476,403.577,247.51,407.536,253.153,418.595z M206.363,358.013c12.497-2.649,24.769,5.332,27.417,17.823
		c2.65,12.497-5.329,24.768-17.826,27.418c-12.492,2.648-24.764-5.329-27.414-17.826
		C185.893,372.936,193.871,360.662,206.363,358.013z"/>
	
		<rect x="323.653" y="273.908" transform="matrix(0.2074 0.9783 -0.9783 0.2074 607.629 -48.6607)" fill="#CCCCCC" width="20.378" height="153.447"/>
	
		<rect x="493.113" y="243.375" transform="matrix(0.2074 0.9783 -0.9783 0.2074 706.7806 -242.9233)" fill="#CCCCCC" width="20.379" height="142.657"/>
	<path fill="#FFFFFF" d="M241.035,516.123c6.746-1.43,11.806-6.779,13.771-14.549l-32.259,6.839
		C227.494,514.717,234.293,517.552,241.035,516.123z"/>
	<path fill="#FFFFFF" d="M192.401,573.627l326.013-69.118c19.249-20.528,35.634-43.771,48.506-69.105l-188.262,39.914l-4.227-19.938
		l202.979-43.034c4.169-10.293,7.785-20.87,10.801-31.7l-417.939,88.607L192.401,573.627z M348.631,460.851l4.228,19.936
		l-66.846,14.171l-4.227-19.936L348.631,460.851z M278.264,537.04l-64.963,13.772c0.669-12.396,6.375-19.436,14.673-23.607
		c4.532,1.32,9.434,1.543,14.364,0.497c4.935-1.047,9.331-3.225,12.936-6.267C264.557,521.876,272.621,525.982,278.264,537.04z
		 M231.392,476.069c12.496-2.649,24.768,5.33,27.417,17.822c2.649,12.498-5.33,24.768-17.827,27.417
		c-12.492,2.649-24.764-5.329-27.413-17.825C210.921,490.99,218.899,478.718,231.392,476.069z"/>
	
		<rect x="307.133" y="443.738" transform="matrix(0.2074 0.9782 -0.9782 0.2074 719.0021 68.3449)" fill="#CCCCCC" width="20.379" height="68.331"/>
	<path fill="#CCCCCC" d="M374.432,455.379l4.227,19.938l188.262-39.914c3.814-7.506,7.311-15.201,10.491-23.059L374.432,455.379z"/>
</g>
</svg>
