<?xml version="1.0" encoding="utf-8"?>
<!-- Generator: Adobe Illustrator 16.0.3, SVG Export Plug-In . SVG Version: 6.00 Build 0)  -->
<!DOCTYPE svg PUBLIC "-//W3C//DTD SVG 1.1//EN" "http://www.w3.org/Graphics/SVG/1.1/DTD/svg11.dtd">
<svg version="1.1" xmlns="http://www.w3.org/2000/svg" xmlns:xlink="http://www.w3.org/1999/xlink" x="0px" y="0px" width="600px"
	 height="600px" viewBox="0 0 600 600" enable-background="new 0 0 600 600" xml:space="preserve">
<g id="Edit">
	<circle fill="#F27E7E" cx="298.647" cy="299.388" r="299.493"/>
	
		<g id="Edit__x2014__Used_to_enter_Edit_mode._Edit_mode_allows_the_user_to_change_the_data_of_otherwise_not_editable_detail_views._Example:__Contacts_detail_view.">
		<path fill="#FFFFFF" d="M302.967,226.6l-115.926,96.368c0,0,8.266,9.472,31.771,10.71c3.971,11.145,7.48,24.154,33.567,39.653
			c-3.272,22.192,6.248,35.743,6.248,35.743l115.984-96.256c0.127-14.655-8.986-33.809-24.574-52.536
			C328.726,234.626,309.436,228.159,302.967,226.6z"/>
		<path fill="#FFFFFF" d="M463.092,165.187c-28.527-28.409-50.67-23.041-62.611-13.589c-4.149,3.298-17.071,11.795-26.528,17.966
			c9.819,1.592,29.228,7.78,48.922,31.447c19.578,23.546,21.928,42.292,21.165,52.547c8.302-8.807,21.308-22.595,23.272-24.231
			C480.421,218.34,491.624,193.613,463.092,165.187z"/>
		<path fill="#FFFFFF" d="M202.125,344.895c-20.928-1.979-25.355-7.144-25.355-7.144l-60.401,117.002l126.13-38.581
			c0,0-7.767-19.986-6.529-30.162C227.757,382.493,206.862,366.837,202.125,344.895z"/>
		<path fill="#FFFFFF" d="M359.188,179.947l-13.188,10.672c0,0,22.622,5.97,47.232,35.612c15.448,18.634,22.933,37.475,23.361,50.18
			l12.602-10.351c0,0,6.016-20.371-20.653-52.765C382.342,181.454,359.188,179.947,359.188,179.947z"/>
		<path fill="#FFFFFF" d="M333.898,204.343l-12.605,10.222c0,0,21.668,5.72,45.206,34.116c14.79,17.821,21.964,35.848,22.383,48.02
			l12.056-9.928c0,0,5.754-19.499-19.773-50.511C356.089,205.782,333.898,204.343,333.898,204.343z"/>
	</g>
</g>
<g id="QR" display="none">
	<circle display="inline" fill="#EA9081" cx="301.147" cy="300.888" r="299.993"/>
	<g id="elements_1_" display="inline">
		<path fill="#FFFFFF" d="M117.596,117.336h17.48v17.48h-17.48V117.336z M135.076,117.336h17.481v17.48h-17.481V117.336z
			 M152.558,117.336h17.481v17.48h-17.481V117.336z M170.039,117.336h17.48v17.48h-17.48V117.336z M187.52,117.336h17.481v17.48
			H187.52V117.336z M205.001,117.336h17.482v17.48h-17.482V117.336z M222.483,117.336h17.48v17.48h-17.48V117.336z M292.407,117.336
			h17.48v17.48h-17.48V117.336z M309.888,117.336h17.481v17.48h-17.481V117.336z M327.369,117.336h17.481v17.48h-17.481V117.336z
			 M362.331,117.336h17.482v17.48h-17.482V117.336z M379.813,117.336h17.48v17.48h-17.48V117.336z M397.294,117.336h17.48v17.48
			h-17.48V117.336z M414.774,117.336h17.481v17.48h-17.481V117.336z M432.256,117.336h17.481v17.48h-17.481V117.336z
			 M449.737,117.336h17.48v17.48h-17.48V117.336z M467.218,117.336H484.7v17.48h-17.482V117.336z M117.596,134.816h17.48v17.481
			h-17.48V134.816z M222.483,134.816h17.48v17.481h-17.48V134.816z M257.445,134.816h17.481v17.481h-17.481V134.816z
			 M274.926,134.816h17.481v17.481h-17.481V134.816z M292.407,134.816h17.48v17.481h-17.48V134.816z M327.369,134.816h17.481v17.481
			h-17.481V134.816z M362.331,134.816h17.482v17.481h-17.482V134.816z M467.218,134.816H484.7v17.481h-17.482V134.816z
			 M117.596,152.298h17.48v17.481h-17.48V152.298z M152.558,152.298h17.481v17.481h-17.481V152.298z M170.039,152.298h17.48v17.481
			h-17.48V152.298z M187.52,152.298h17.481v17.481H187.52V152.298z M222.483,152.298h17.48v17.481h-17.48V152.298z M292.407,152.298
			h17.48v17.481h-17.48V152.298z M309.888,152.298h17.481v17.481h-17.481V152.298z M327.369,152.298h17.481v17.481h-17.481V152.298z
			 M362.331,152.298h17.482v17.481h-17.482V152.298z M397.294,152.298h17.48v17.481h-17.48V152.298z M414.774,152.298h17.481v17.481
			h-17.481V152.298z M432.256,152.298h17.481v17.481h-17.481V152.298z M467.218,152.298H484.7v17.481h-17.482V152.298z
			 M117.596,169.779h17.48v17.48h-17.48V169.779z M152.558,169.779h17.481v17.48h-17.481V169.779z M170.039,169.779h17.48v17.48
			h-17.48V169.779z M187.52,169.779h17.481v17.48H187.52V169.779z M222.483,169.779h17.48v17.48h-17.48V169.779z M257.445,169.779
			h17.481v17.48h-17.481V169.779z M274.926,169.779h17.481v17.48h-17.481V169.779z M327.369,169.779h17.481v17.48h-17.481V169.779z
			 M362.331,169.779h17.482v17.48h-17.482V169.779z M397.294,169.779h17.48v17.48h-17.48V169.779z M414.774,169.779h17.481v17.48
			h-17.481V169.779z M432.256,169.779h17.481v17.48h-17.481V169.779z M467.218,169.779H484.7v17.48h-17.482V169.779z
			 M117.596,187.26h17.48v17.481h-17.48V187.26z M152.558,187.26h17.481v17.481h-17.481V187.26z M170.039,187.26h17.48v17.481
			h-17.48V187.26z M187.52,187.26h17.481v17.481H187.52V187.26z M222.483,187.26h17.48v17.481h-17.48V187.26z M274.926,187.26
			h17.481v17.481h-17.481V187.26z M327.369,187.26h17.481v17.481h-17.481V187.26z M362.331,187.26h17.482v17.481h-17.482V187.26z
			 M397.294,187.26h17.48v17.481h-17.48V187.26z M414.774,187.26h17.481v17.481h-17.481V187.26z M432.256,187.26h17.481v17.481
			h-17.481V187.26z M467.218,187.26H484.7v17.481h-17.482V187.26z M117.596,204.741h17.48v17.482h-17.48V204.741z M222.483,204.741
			h17.48v17.482h-17.48V204.741z M257.445,204.741h17.481v17.482h-17.481V204.741z M309.888,204.741h17.481v17.482h-17.481V204.741z
			 M362.331,204.741h17.482v17.482h-17.482V204.741z M467.218,204.741H484.7v17.482h-17.482V204.741z M117.596,222.223h17.48v17.48
			h-17.48V222.223z M135.076,222.223h17.481v17.48h-17.481V222.223z M152.558,222.223h17.481v17.48h-17.481V222.223z
			 M170.039,222.223h17.48v17.48h-17.48V222.223z M187.52,222.223h17.481v17.48H187.52V222.223z M205.001,222.223h17.482v17.48
			h-17.482V222.223z M222.483,222.223h17.48v17.48h-17.48V222.223z M257.445,222.223h17.481v17.48h-17.481V222.223z
			 M292.407,222.223h17.48v17.48h-17.48V222.223z M327.369,222.223h17.481v17.48h-17.481V222.223z M362.331,222.223h17.482v17.48
			h-17.482V222.223z M379.813,222.223h17.48v17.48h-17.48V222.223z M397.294,222.223h17.48v17.48h-17.48V222.223z M414.774,222.223
			h17.481v17.48h-17.481V222.223z M432.256,222.223h17.481v17.48h-17.481V222.223z M449.737,222.223h17.48v17.48h-17.48V222.223z
			 M467.218,222.223H484.7v17.48h-17.482V222.223z M274.926,239.704h17.481v17.481h-17.481V239.704z M117.596,257.185h17.48v17.48
			h-17.48V257.185z M135.076,257.185h17.481v17.48h-17.481V257.185z M152.558,257.185h17.481v17.48h-17.481V257.185z
			 M170.039,257.185h17.48v17.48h-17.48V257.185z M187.52,257.185h17.481v17.48H187.52V257.185z M222.483,257.185h17.48v17.48
			h-17.48V257.185z M239.963,257.185h17.481v17.48h-17.481V257.185z M257.445,257.185h17.481v17.48h-17.481V257.185z
			 M309.888,257.185h17.481v17.48h-17.481V257.185z M344.851,257.185h17.48v17.48h-17.48V257.185z M379.813,257.185h17.48v17.48
			h-17.48V257.185z M414.774,257.185h17.481v17.48h-17.481V257.185z M449.737,257.185h17.48v17.48h-17.48V257.185z M152.558,274.666
			h17.481v17.481h-17.481V274.666z M187.52,274.666h17.481v17.481H187.52V274.666z M239.963,274.666h17.481v17.481h-17.481V274.666z
			 M274.926,274.666h17.481v17.481h-17.481V274.666z M309.888,274.666h17.481v17.481h-17.481V274.666z M327.369,274.666h17.481
			v17.481h-17.481V274.666z M344.851,274.666h17.48v17.481h-17.48V274.666z M362.331,274.666h17.482v17.481h-17.482V274.666z
			 M379.813,274.666h17.48v17.481h-17.48V274.666z M467.218,274.666H484.7v17.481h-17.482V274.666z M117.596,292.147h17.48v17.481
			h-17.48V292.147z M135.076,292.147h17.481v17.481h-17.481V292.147z M170.039,292.147h17.48v17.481h-17.48V292.147z
			 M222.483,292.147h17.48v17.481h-17.48V292.147z M257.445,292.147h17.481v17.481h-17.481V292.147z M292.407,292.147h17.48v17.481
			h-17.48V292.147z M327.369,292.147h17.481v17.481h-17.481V292.147z M362.331,292.147h17.482v17.481h-17.482V292.147z
			 M379.813,292.147h17.48v17.481h-17.48V292.147z M414.774,292.147h17.481v17.481h-17.481V292.147z M432.256,292.147h17.481v17.481
			h-17.481V292.147z M449.737,292.147h17.48v17.481h-17.48V292.147z M135.076,309.628h17.481v17.481h-17.481V309.628z
			 M152.558,309.628h17.481v17.481h-17.481V309.628z M170.039,309.628h17.48v17.481h-17.48V309.628z M187.52,309.628h17.481v17.481
			H187.52V309.628z M239.963,309.628h17.481v17.481h-17.481V309.628z M309.888,309.628h17.481v17.481h-17.481V309.628z
			 M327.369,309.628h17.481v17.481h-17.481V309.628z M344.851,309.628h17.48v17.481h-17.48V309.628z M362.331,309.628h17.482v17.481
			h-17.482V309.628z M379.813,309.628h17.48v17.481h-17.48V309.628z M397.294,309.628h17.48v17.481h-17.48V309.628z
			 M414.774,309.628h17.481v17.481h-17.481V309.628z M432.256,309.628h17.481v17.481h-17.481V309.628z M467.218,309.628H484.7
			v17.481h-17.482V309.628z M117.596,327.109h17.48v17.481h-17.48V327.109z M170.039,327.109h17.48v17.481h-17.48V327.109z
			 M187.52,327.109h17.481v17.481H187.52V327.109z M222.483,327.109h17.48v17.481h-17.48V327.109z M239.963,327.109h17.481v17.481
			h-17.481V327.109z M292.407,327.109h17.48v17.481h-17.48V327.109z M327.369,327.109h17.481v17.481h-17.481V327.109z
			 M379.813,327.109h17.48v17.481h-17.48V327.109z M397.294,327.109h17.48v17.481h-17.48V327.109z M449.737,327.109h17.48v17.481
			h-17.48V327.109z M467.218,327.109H484.7v17.481h-17.482V327.109z M257.445,344.591h17.481v17.481h-17.481V344.591z
			 M274.926,344.591h17.481v17.481h-17.481V344.591z M327.369,344.591h17.481v17.481h-17.481V344.591z M379.813,344.591h17.48
			v17.481h-17.48V344.591z M414.774,344.591h17.481v17.481h-17.481V344.591z M467.218,344.591H484.7v17.481h-17.482V344.591z
			 M117.596,362.072h17.48v17.481h-17.48V362.072z M135.076,362.072h17.481v17.481h-17.481V362.072z M152.558,362.072h17.481v17.481
			h-17.481V362.072z M170.039,362.072h17.48v17.481h-17.48V362.072z M187.52,362.072h17.481v17.481H187.52V362.072z
			 M205.001,362.072h17.482v17.481h-17.482V362.072z M222.483,362.072h17.48v17.481h-17.48V362.072z M257.445,362.072h17.481v17.481
			h-17.481V362.072z M292.407,362.072h17.48v17.481h-17.48V362.072z M309.888,362.072h17.481v17.481h-17.481V362.072z
			 M344.851,362.072h17.48v17.481h-17.48V362.072z M379.813,362.072h17.48v17.481h-17.48V362.072z M414.774,362.072h17.481v17.481
			h-17.481V362.072z M432.256,362.072h17.481v17.481h-17.481V362.072z M449.737,362.072h17.48v17.481h-17.48V362.072z
			 M117.596,379.554h17.48v17.48h-17.48V379.554z M222.483,379.554h17.48v17.48h-17.48V379.554z M274.926,379.554h17.481v17.48
			h-17.481V379.554z M414.774,379.554h17.481v17.48h-17.481V379.554z M432.256,379.554h17.481v17.48h-17.481V379.554z
			 M449.737,379.554h17.48v17.48h-17.48V379.554z M467.218,379.554H484.7v17.48h-17.482V379.554z M117.596,397.034h17.48v17.48
			h-17.48V397.034z M152.558,397.034h17.481v17.48h-17.481V397.034z M170.039,397.034h17.48v17.48h-17.48V397.034z M187.52,397.034
			h17.481v17.48H187.52V397.034z M222.483,397.034h17.48v17.48h-17.48V397.034z M257.445,397.034h17.481v17.48h-17.481V397.034z
			 M274.926,397.034h17.481v17.48h-17.481V397.034z M292.407,397.034h17.48v17.48h-17.48V397.034z M309.888,397.034h17.481v17.48
			h-17.481V397.034z M344.851,397.034h17.48v17.48h-17.48V397.034z M414.774,397.034h17.481v17.48h-17.481V397.034z
			 M449.737,397.034h17.48v17.48h-17.48V397.034z M117.596,414.515h17.48v17.482h-17.48V414.515z M152.558,414.515h17.481v17.482
			h-17.481V414.515z M170.039,414.515h17.48v17.482h-17.48V414.515z M187.52,414.515h17.481v17.482H187.52V414.515z
			 M222.483,414.515h17.48v17.482h-17.48V414.515z M257.445,414.515h17.481v17.482h-17.481V414.515z M274.926,414.515h17.481v17.482
			h-17.481V414.515z M309.888,414.515h17.481v17.482h-17.481V414.515z M327.369,414.515h17.481v17.482h-17.481V414.515z
			 M344.851,414.515h17.48v17.482h-17.48V414.515z M362.331,414.515h17.482v17.482h-17.482V414.515z M379.813,414.515h17.48v17.482
			h-17.48V414.515z M397.294,414.515h17.48v17.482h-17.48V414.515z M432.256,414.515h17.481v17.482h-17.481V414.515z
			 M117.596,431.997h17.48v17.48h-17.48V431.997z M152.558,431.997h17.481v17.48h-17.481V431.997z M170.039,431.997h17.48v17.48
			h-17.48V431.997z M187.52,431.997h17.481v17.48H187.52V431.997z M222.483,431.997h17.48v17.48h-17.48V431.997z M257.445,431.997
			h17.481v17.48h-17.481V431.997z M292.407,431.997h17.48v17.48h-17.48V431.997z M327.369,431.997h17.481v17.48h-17.481V431.997z
			 M362.331,431.997h17.482v17.48h-17.482V431.997z M432.256,431.997h17.481v17.48h-17.481V431.997z M117.596,449.478h17.48v17.48
			h-17.48V449.478z M222.483,449.478h17.48v17.48h-17.48V449.478z M257.445,449.478h17.481v17.48h-17.481V449.478z M274.926,449.478
			h17.481v17.48h-17.481V449.478z M292.407,449.478h17.48v17.48h-17.48V449.478z M309.888,449.478h17.481v17.48h-17.481V449.478z
			 M327.369,449.478h17.481v17.48h-17.481V449.478z M344.851,449.478h17.48v17.48h-17.48V449.478z M362.331,449.478h17.482v17.48
			h-17.482V449.478z M379.813,449.478h17.48v17.48h-17.48V449.478z M414.774,449.478h17.481v17.48h-17.481V449.478z
			 M432.256,449.478h17.481v17.48h-17.481V449.478z M117.596,466.958h17.48v17.482h-17.48V466.958z M135.076,466.958h17.481v17.482
			h-17.481V466.958z M152.558,466.958h17.481v17.482h-17.481V466.958z M170.039,466.958h17.48v17.482h-17.48V466.958z
			 M187.52,466.958h17.481v17.482H187.52V466.958z M205.001,466.958h17.482v17.482h-17.482V466.958z M222.483,466.958h17.48v17.482
			h-17.48V466.958z M257.445,466.958h17.481v17.482h-17.481V466.958z M274.926,466.958h17.481v17.482h-17.481V466.958z
			 M292.407,466.958h17.48v17.482h-17.48V466.958z M327.369,466.958h17.481v17.482h-17.481V466.958z M397.294,466.958h17.48v17.482
			h-17.48V466.958z M449.737,466.958h17.48v17.482h-17.48V466.958z"/>
	</g>
</g>
<g id="Contacts" display="none">
	<circle display="inline" fill="#C63457" cx="300.647" cy="300.388" r="298.493"/>
	<path display="inline" fill="#FFFFFF" d="M165.95,161.957c6.746-1.43,11.805-6.779,13.77-14.549l-32.259,6.839
		C152.408,160.551,159.208,163.387,165.95,161.957z"/>
	<path display="inline" fill="#FFFFFF" d="M117.315,219.46l427.596-90.653c-12.734-18.094-27.417-34.716-43.76-49.544
		l-97.896,20.754l-4.227-19.937l82.135-17.413c-10.713-8.148-21.992-15.588-33.771-22.251l-352.206,74.67L117.315,219.46z
		 M369.71,86.296l4.228,19.937l-157.146,33.316l-4.227-19.937L369.71,86.296z M203.178,182.875l-64.963,13.772
		c0.668-12.396,6.375-19.437,14.672-23.608c4.532,1.32,9.434,1.543,14.365,0.498c4.934-1.046,9.33-3.225,12.936-6.267
		C189.471,167.711,197.536,171.816,203.178,182.875z M156.306,121.904c12.498-2.649,24.769,5.33,27.417,17.822
		c2.65,12.498-5.329,24.768-17.827,27.417c-12.492,2.648-24.764-5.329-27.413-17.826
		C135.835,136.825,143.813,124.553,156.306,121.904z"/>
	
		<rect x="283.061" y="32.603" transform="matrix(0.2074 0.9782 -0.9782 0.2074 342.8859 -197.3738)" display="inline" fill="#CCCCCC" width="20.38" height="160.639"/>
	<path display="inline" fill="#CCCCCC" d="M399.028,80.081l4.227,19.937l97.896-20.754c-6.412-5.817-13.087-11.347-19.988-16.595
		L399.028,80.081z"/>
	<path display="inline" fill="#FFFFFF" d="M191.062,280.404c6.745-1.431,11.805-6.78,13.77-14.549l-32.259,6.839
		C177.52,278.997,184.319,281.833,191.062,280.404z"/>
	<path display="inline" fill="#FFFFFF" d="M142.426,337.906l451.043-95.625c-7.169-36.332-20.93-70.29-39.985-100.587
		l-433.186,91.838L142.426,337.906z M551.969,171.427l4.226,19.936L374.421,229.9l-4.227-19.937L551.969,171.427z M346.739,214.936
		l4.227,19.937l-109.064,23.122l-4.226-19.936L346.739,214.936z M228.29,301.321l-64.963,13.771
		c0.669-12.396,6.333-19.63,14.631-23.802c4.532,1.319,9.413,1.443,14.344,0.398c4.935-1.047,9.362-3.078,12.967-6.121
		C214.551,286.011,222.647,290.263,228.29,301.321z M181.334,239.959c12.497-2.65,24.769,5.331,27.417,17.822
		c2.649,12.498-5.33,24.768-17.827,27.417c-12.492,2.648-24.764-5.329-27.414-17.826
		C160.864,254.881,168.842,242.608,181.334,239.959z"/>
	
		<rect x="284.131" y="180.722" transform="matrix(0.2074 0.9783 -0.9783 0.2074 464.6076 -100.4958)" display="inline" fill="#CCCCCC" width="20.38" height="111.488"/>
	
		<rect x="453.005" y="107.756" transform="matrix(0.2074 0.9783 -0.9783 0.2074 563.4503 -294.0726)" display="inline" fill="#CCCCCC" width="20.378" height="185.815"/>
	<path display="inline" fill="#FFFFFF" d="M215.924,397.677c6.745-1.43,11.805-6.779,13.77-14.549l-32.259,6.84
		C202.383,396.271,209.182,399.106,215.924,397.677z"/>
	<path display="inline" fill="#FFFFFF" d="M167.29,455.18l424.791-90.06c4.609-20.844,7.061-42.501,7.061-64.732
		c0-15.334-1.16-30.398-3.391-45.109l-450.588,95.527L167.29,455.18z M570.967,289.943l4.227,19.936l-139.555,29.587l-4.228-19.937
		L570.967,289.943z M406.785,324.752l4.226,19.936l-150.11,31.823l-4.227-19.936L406.785,324.752z M253.153,418.595l-64.963,13.772
		c0.668-12.397,6.416-19.242,14.713-23.415c4.532,1.321,9.456,1.642,14.386,0.597c4.935-1.047,9.299-3.371,12.905-6.413
		C239.476,403.577,247.51,407.536,253.153,418.595z M206.363,358.013c12.497-2.649,24.769,5.332,27.417,17.823
		c2.65,12.497-5.329,24.768-17.826,27.418c-12.492,2.648-24.764-5.329-27.414-17.826
		C185.893,372.936,193.871,360.662,206.363,358.013z"/>
	
		<rect x="323.653" y="273.908" transform="matrix(0.2074 0.9783 -0.9783 0.2074 607.629 -48.6607)" display="inline" fill="#CCCCCC" width="20.378" height="153.447"/>
	
		<rect x="493.113" y="243.375" transform="matrix(0.2074 0.9783 -0.9783 0.2074 706.7806 -242.9233)" display="inline" fill="#CCCCCC" width="20.379" height="142.657"/>
	<path display="inline" fill="#FFFFFF" d="M241.035,516.123c6.746-1.43,11.806-6.779,13.771-14.549l-32.259,6.839
		C227.494,514.717,234.293,517.552,241.035,516.123z"/>
	<path display="inline" fill="#FFFFFF" d="M192.401,573.627l326.013-69.118c19.249-20.528,35.634-43.771,48.506-69.105
		l-188.262,39.914l-4.227-19.938l202.979-43.034c4.169-10.293,7.785-20.87,10.801-31.7l-417.939,88.607L192.401,573.627z
		 M348.631,460.851l4.228,19.936l-66.846,14.171l-4.227-19.936L348.631,460.851z M278.264,537.04l-64.963,13.772
		c0.669-12.396,6.375-19.436,14.673-23.607c4.532,1.32,9.434,1.543,14.364,0.497c4.935-1.047,9.331-3.225,12.936-6.267
		C264.557,521.876,272.621,525.982,278.264,537.04z M231.392,476.069c12.496-2.649,24.768,5.33,27.417,17.822
		c2.649,12.498-5.33,24.768-17.827,27.417c-12.492,2.649-24.764-5.329-27.413-17.825
		C210.921,490.99,218.899,478.718,231.392,476.069z"/>
	
		<rect x="307.133" y="443.738" transform="matrix(0.2074 0.9782 -0.9782 0.2074 719.0021 68.3449)" display="inline" fill="#CCCCCC" width="20.379" height="68.331"/>
	<path display="inline" fill="#CCCCCC" d="M374.432,455.379l4.227,19.938l188.262-39.914c3.814-7.506,7.311-15.201,10.491-23.059
		L374.432,455.379z"/>
</g>
</svg>
